<?xml version="1.0" standalone="no"?>
<!DOCTYPE svg PUBLIC "-//W3C//DTD SVG 20010904//EN"
 "http://www.w3.org/TR/2001/REC-SVG-20010904/DTD/svg10.dtd">
<svg version="1.0" xmlns="http://www.w3.org/2000/svg"
 width="300.000000pt" height="300.000000pt" viewBox="0 0 300.000000 300.000000"
 preserveAspectRatio="xMidYMid meet">
<metadata>
Created by potrace 1.10, written by Peter Selinger 2001-2011
</metadata>
<g transform="translate(0.000000,300.000000) scale(0.100000,-0.100000)"
fill="#000000" stroke="none">
<path d="M1457 2768 c-73 -20 -117 -87 -117 -180 l0 -38 -47 0 c-120 0 -196
-97 -148 -189 16 -32 10 -43 -32 -55 -12 -4 -48 -33 -80 -64 -45 -44 -73 -87
-126 -190 -66 -129 -98 -168 -82 -99 19 74 2 130 -48 161 -26 17 -51 -5 -55
-48 -3 -31 -7 -36 -28 -36 -14 0 -24 6 -24 15 0 8 -11 22 -26 31 l-25 17 35
36 c42 42 43 51 16 76 -51 46 -155 15 -191 -58 -27 -53 -36 -156 -19 -228 56
-241 310 -431 469 -350 54 28 112 81 168 154 55 72 63 66 71 -58 4 -73 2 -89
-20 -137 -28 -60 -105 -141 -194 -204 -122 -85 -202 -154 -238 -203 -36 -48
-73 -70 -95 -57 -5 4 -9 37 -9 75 2 72 -11 105 -56 143 -26 21 -123 54 -133
45 -3 -4 3 -25 15 -46 31 -54 28 -83 -18 -165 -52 -95 -58 -136 -30 -206 25
-64 49 -93 105 -125 56 -32 119 -40 174 -21 78 28 100 23 161 -40 30 -31 65
-60 78 -65 15 -6 22 -17 22 -35 0 -33 50 -126 64 -121 6 2 18 22 26 45 21 56
24 57 67 36 24 -11 61 -18 99 -19 52 0 68 5 115 34 140 88 160 93 124 31 -38
-67 -3 -173 72 -219 88 -54 103 -69 103 -107 0 -19 -7 -48 -15 -64 -19 -36
-10 -42 39 -25 105 37 160 160 104 237 -49 70 -20 116 125 196 111 61 168 109
203 168 14 24 32 44 38 44 19 0 77 -41 98 -71 28 -38 33 -98 13 -159 -9 -28
-15 -54 -12 -57 15 -14 107 36 158 87 74 73 102 145 97 245 -5 99 -44 175
-153 295 -96 107 -201 259 -233 338 -11 28 -19 52 -18 52 2 0 21 -7 42 -16 50
-21 108 -12 189 31 199 104 339 286 352 458 5 65 2 77 -24 127 -22 43 -38 60
-74 78 -39 19 -50 21 -77 11 -54 -18 -58 -42 -17 -87 35 -40 46 -72 22 -72 -7
0 -29 -11 -49 -25 -20 -14 -39 -25 -42 -25 -4 0 -6 13 -6 29 0 28 -22 61 -40
61 -5 0 -23 -17 -40 -37 -30 -36 -31 -41 -27 -107 l5 -68 -66 -30 c-35 -16
-68 -26 -72 -21 -5 4 -47 80 -95 167 -80 148 -85 161 -74 188 18 43 3 88 -43
135 l-41 42 22 50 c29 68 27 100 -11 156 -66 95 -173 146 -305 144 -43 -1 -95
-6 -116 -11z m275 -51 c62 -30 134 -101 144 -143 5 -20 -5 -56 -38 -138 -48
-116 -67 -183 -51 -173 5 3 22 36 38 73 l28 67 39 -41 c21 -23 38 -51 38 -62
0 -36 -27 -87 -70 -134 -76 -82 -157 -103 -271 -70 -62 18 -245 102 -272 124
-10 8 -19 13 -21 10 -2 -3 -13 6 -24 20 -11 14 -24 21 -29 17 -9 -10 13 -29
85 -72 42 -25 51 -36 61 -75 27 -104 128 -300 155 -300 8 0 20 16 28 36 l15
37 59 -107 59 -107 22 26 c13 14 32 58 44 97 20 64 23 69 35 53 8 -10 14 -22
14 -27 0 -23 23 -3 40 35 25 58 33 130 22 207 -9 59 -7 68 12 92 11 15 23 27
26 27 3 1 39 -62 79 -139 40 -77 79 -145 87 -151 11 -9 10 -16 -7 -38 -11 -15
-22 -45 -25 -66 l-6 -40 23 45 c13 25 35 50 49 57 133 62 150 69 150 57 0 -7
5 -16 11 -20 9 -5 10 17 5 85 -6 76 -5 96 8 117 23 34 32 30 46 -21 9 -32 24
-54 51 -76 32 -25 39 -37 39 -65 0 -21 4 -33 10 -29 6 3 10 22 10 41 0 33 -15
55 -56 81 -18 12 -18 13 6 33 54 44 94 34 120 -31 13 -29 37 -42 26 -13 -3 9
-6 19 -6 23 0 5 -10 21 -22 37 -14 18 -21 38 -19 57 2 22 -5 38 -30 63 -27 28
-30 36 -19 49 17 20 38 19 77 -5 132 -80 78 -321 -113 -499 -175 -163 -353
-193 -391 -65 -6 21 -28 109 -47 194 -35 149 -49 190 -60 179 -5 -5 41 -226
85 -411 38 -158 97 -256 266 -446 109 -122 145 -189 151 -277 7 -109 -37 -205
-125 -269 -58 -43 -66 -44 -56 -8 12 43 7 116 -11 149 -19 38 -69 81 -103 89
-22 6 -24 10 -18 38 4 17 9 48 12 69 3 20 8 37 11 37 3 0 29 -18 59 -40 61
-47 98 -98 124 -173 17 -50 18 -51 18 -17 2 76 -88 198 -181 246 -21 11 -28
22 -28 45 0 29 -39 134 -47 126 -2 -2 4 -35 13 -73 42 -179 -39 -344 -214
-440 -163 -89 -194 -118 -194 -180 0 -18 9 -49 21 -67 36 -59 22 -131 -35
-176 -37 -29 -44 -26 -37 13 8 49 -20 90 -93 135 -95 60 -119 140 -70 231 74
136 76 149 46 285 -18 85 -21 85 -93 19 -36 -33 -107 -84 -158 -114 -122 -70
-219 -166 -245 -238 -10 -29 -23 -51 -29 -49 -16 6 -43 116 -44 180 -1 88 26
202 70 290 22 43 38 81 35 84 -9 9 -83 -114 -96 -161 -7 -25 -17 -46 -22 -46
-5 0 -21 13 -34 30 -43 50 -110 50 -193 -1 -46 -28 -34 -34 20 -9 24 11 63 20
86 20 36 0 48 -6 80 -38 l38 -39 -3 -86 c-2 -48 -7 -87 -10 -87 -3 0 -33 27
-68 60 -69 67 -94 73 -174 45 -23 -8 -52 -15 -64 -15 -107 0 -206 101 -206
211 0 15 20 66 45 115 49 96 52 109 31 159 l-14 33 28 -10 c67 -23 106 -94 94
-169 -5 -31 -2 -42 18 -62 13 -13 30 -26 37 -28 9 -3 8 -13 -4 -43 -23 -56
-12 -69 14 -16 13 25 48 78 78 117 52 69 78 91 270 232 95 69 167 149 187 207
20 60 21 159 1 235 -15 55 -14 60 5 97 12 22 30 48 41 58 12 10 26 28 31 39
l11 20 -23 -20 c-23 -20 -23 -20 -16 0 15 40 20 88 8 81 -7 -4 -12 -15 -12
-24 0 -50 -110 -226 -209 -334 -125 -137 -265 -128 -409 27 -119 127 -156 270
-89 343 25 26 87 30 111 6 23 -22 20 -30 -19 -52 -33 -20 -52 -57 -43 -84 3
-7 12 1 22 21 l18 33 23 -22 c13 -12 32 -39 41 -59 10 -20 19 -31 21 -24 6 18
-27 82 -51 99 -18 12 -19 16 -6 24 8 6 31 8 51 4 34 -5 37 -3 48 27 6 18 11
40 11 50 0 24 19 24 36 2 17 -22 18 -76 3 -141 -9 -36 -9 -54 -1 -68 11 -18
11 -18 12 4 0 12 6 25 14 28 22 8 91 -32 126 -73 27 -33 31 -35 25 -13 -8 29
-61 87 -86 95 -16 5 -15 10 10 53 15 26 47 84 71 130 48 93 107 160 170 192
40 20 43 21 61 4 24 -21 38 -10 17 13 -47 54 -61 130 -32 172 21 30 72 51 124
51 l40 0 0 -43 c0 -57 -9 -64 -36 -30 -24 30 -42 27 -25 -4 5 -11 43 -51 84
-90 79 -74 226 -159 263 -151 13 3 2 12 -38 30 -59 28 -150 87 -206 135 l-33
28 16 38 c9 21 13 48 9 62 -3 14 -3 59 1 101 11 125 55 155 216 151 70 -3 96
-8 141 -30z m-1084 -529 c16 -20 -45 -82 -95 -96 -29 -9 -48 -22 -57 -40 -13
-23 -15 -24 -16 -7 -1 76 62 155 124 155 19 0 38 -6 44 -12z m814 -69 c142
-72 264 -81 350 -24 21 14 40 25 44 25 11 0 -1 -224 -13 -244 -10 -18 -13 -16
-33 25 l-23 44 -23 -88 c-13 -48 -30 -99 -37 -113 -14 -26 -15 -25 -78 90 -62
114 -78 133 -80 99 0 -10 -6 -36 -13 -58 l-12 -40 -51 105 c-75 156 -93 200
-78 200 3 0 24 -9 47 -21z m27 -1209 c26 -122 7 -192 -57 -210 -21 -5 -70 -30
-108 -55 -39 -25 -87 -47 -110 -51 -44 -6 -108 7 -139 29 -18 14 -16 17 36 72
32 34 91 79 146 112 51 30 116 76 145 103 29 27 58 49 65 50 6 0 16 -23 22
-50z"/>
<path d="M1420 2661 c0 -23 81 -98 137 -127 80 -40 182 -46 248 -14 25 12 45
26 45 31 0 6 -7 6 -19 0 -97 -53 -254 -19 -363 78 -27 24 -48 38 -48 32z"/>
</g>
</svg>
